<?xml version="1.0" encoding="UTF-8" standalone="no"?>
<!-- Created with Inkscape (http://www.inkscape.org/) -->

<svg
   xmlns:dc="http://purl.org/dc/elements/1.1/"
   xmlns:cc="http://creativecommons.org/ns#"
   xmlns:rdf="http://www.w3.org/1999/02/22-rdf-syntax-ns#"
   xmlns:svg="http://www.w3.org/2000/svg"
   xmlns="http://www.w3.org/2000/svg"
   xmlns:sodipodi="http://sodipodi.sourceforge.net/DTD/sodipodi-0.dtd"
   xmlns:inkscape="http://www.inkscape.org/namespaces/inkscape"
   version="1.1"
   width="701"
   height="693"
   id="svg4294"
   inkscape:version="0.48.4 r9939"
   sodipodi:docname="lander.svg">
  <sodipodi:namedview
     pagecolor="#ffffff"
     bordercolor="#666666"
     borderopacity="1"
     objecttolerance="10"
     gridtolerance="10"
     guidetolerance="10"
     inkscape:pageopacity="0"
     inkscape:pageshadow="2"
     inkscape:window-width="1354"
     inkscape:window-height="759"
     id="namedview42"
     showgrid="false"
     inkscape:zoom="0.68109668"
     inkscape:cx="339.34799"
     inkscape:cy="400.09248"
     inkscape:window-x="0"
     inkscape:window-y="26"
     inkscape:window-maximized="0"
     inkscape:current-layer="svg4294" />
  <metadata
     id="metadata4300">
    <rdf:RDF>
      <cc:Work
         rdf:about="">
        <dc:format>image/svg+xml</dc:format>
        <dc:type
           rdf:resource="http://purl.org/dc/dcmitype/StillImage" />
        <dc:title />
      </cc:Work>
    </rdf:RDF>
  </metadata>
  <defs
     id="defs4298" />
  <path
     d="m 168.08896,552.69779 c -4.2114,-1.95943 -8.8904,-6.94249 -15.7423,-16.76543 -5.2059,-7.46333 -5.9046,-8.15542 -8.4536,-8.3739 -1.8603,-0.15946 -3.5307,-1.02497 -5.0541,-2.61887 -2.2262,-2.32925 -2.2748,-2.56498 -2.2461,-10.90691 0.022,-6.25344 0.3338,-8.89311 1.1716,-9.90263 1.0457,-1.26004 2.8702,-1.35061 21.5762,-1.07103 l 20.4338,0.3054 13.4666,-22.08482 c 7.4066,-12.14665 15.8618,-25.83133 18.7892,-30.4104 4.0004,-6.25723 5.5313,-9.45415 6.1625,-12.86824 0.4618,-2.49845 0.6662,-4.99472 0.4542,-5.54728 -0.212,-0.55255 -1.6437,-1.24068 -3.1816,-1.52918 -5.3632,-1.00615 -5.4495,-1.31852 -5.1156,-18.50566 l 0.2985,-15.36307 -22.8559,-4.57923 c -12.5707,-2.51858 -23.9199,-4.77291 -25.2203,-5.00964 -2.1393,-0.38945 -2.4952,-0.14073 -3.7376,2.61256 -1.8203,4.03384 -6.1748,6.49258 -11.4983,6.49258 -3.5341,0 -4.1043,0.23834 -5.0156,2.0965 -0.5655,1.15307 -2.0323,2.83771 -3.2596,3.74364 -1.9858,1.46582 -3.2665,1.63908 -11.6326,1.57386 -5.1707,-0.0403 -9.5852,-0.25732 -9.8102,-0.48226 -0.2249,-0.22494 -0.6738,-1.96526 -0.9976,-3.86739 l -0.5886,-3.45841 -8.6495,-0.60983 c -6.4476,-0.45459 -9.552204,-1.05647 -12.196004,-2.36441 -3.3469,-1.65574 -3.6213,-2.04314 -4.8721,-6.87746 -1.6429,-6.34987 -1.8256,-17.23823 -0.3484,-20.77351 1.2814,-3.06696 9.9007,-10.98244 17.831004,-16.37503 l 5.639,-3.83451 6.8836,0 c 6.8674,0 33.9083,3.54972 34.8874,4.57975 0.284,0.29872 1.187,2.97666 2.0068,5.95097 l 1.4905,5.40784 3.4291,0.16631 c 3.7895,0.18377 6.3497,2.40744 6.3497,5.51508 0,1.60659 0.7503,1.87873 9.6547,3.50207 5.31,0.96807 14.7657,2.86789 21.0125,4.22184 9.3435,2.0251 11.65,2.80452 13.0043,4.39457 2.6117,3.06627 6.0545,4.09208 13.734,4.09208 l 7.0154,0 0.4885,-2.95551 c 1.2613,-7.63074 1.2196,-7.70409 -6.6027,-11.63268 -8.7206,-4.37978 -31.0698,-17.20331 -39.8177,-22.84667 -3.5507,-2.2906 -7.3771,-5.37256 -8.5031,-6.84881 -3.5498,-4.65401 -13.1767,-26.458 -20.627,-46.7182 -5.4242,-14.7506 -13.003,-38.75657 -13.003,-41.18751 0,-3.03728 5.0789,-29.50712 8.2078,-42.77673 2.4474,-10.37956 6.9868,-26.287 9.0433,-31.69034 0.9924,-2.60763 7.9299,-7.76439 19.1867,-14.26186 l 8.459,-4.88254 0.014,-6.04333 0.014,-6.04333 6.1081,-2.01821 c 3.3594,-1.11001 10.8594,-3.08272 16.6665,-4.38382 5.8072,-1.30108 10.7449,-2.55195 10.9726,-2.7797 0.2278,-0.22775 0.5044,-2.19854 0.6147,-4.37954 0.2533,-5.01057 3.0899,-9.99597 7.5945,-13.34778 1.8488,-1.37564 7.3195,-4.40715 12.1571,-6.73667 4.8377,-2.32954 8.9935,-4.55555 9.2352,-4.94669 0.2418,-0.39114 -0.4154,-4.75345 -1.4603,-9.694022 -3.0899,-14.60973 -5.1295,-30.22723 -5.6679,-43.39875 l -0.5047,-12.348106 -2.5584,-0.479953 c -4.3092,-0.808407 -4.5886,-1.712884 -3.977,-12.875578 0.302,-5.513491 0.812,-11.265842 1.1332,-12.783003 0.5784,-2.731266 0.6344,-2.763755 5.6755,-3.293823 7.8984,-0.830499 98.2425,-2.2329912 143.5077,-2.2277962 l 40.6875,0.0047 0.4926,2.4629232 c 1.0081,5.040898 0.4908,15.236324 -1.0264,20.225211 -2.9898,9.831868 -10.5788,18.450185 -18.9266,21.493975 l -4.5546,1.66066 -0.4992,5.90603 c -0.2746,3.24832 -1.3666,10.75541 -2.4267,16.68243 -1.0602,5.92702 -2.149,12.23345 -2.4198,14.0143 l -0.4923,3.23789 7.7348,0.55131 c 17.1263,1.2207 30.856,3.99055 58.0934,11.719852 l 17.257,4.89712 8.7515,7.4047 c 4.8133,4.07258 21.3982,20.10813 36.8553,35.63455 30.4941,30.63071 31.7276,32.19025 32.6602,41.29126 0.5295,5.16833 -1.4797,29.91936 -3.295,40.58898 -3.0525,17.94171 -10.1003,40.53734 -20.0595,64.3121 -3.0687,7.32559 -8.4396,20.76714 -11.9355,29.87011 -3.4958,9.10296 -8.135,20.35645 -10.3093,25.00776 l -3.9533,8.45691 -5.9998,2.2992 c -3.2999,1.26456 -9.5895,3.40067 -13.9768,4.74693 l -7.9771,2.44773 -0.5631,7.94246 c -0.3097,4.36836 -0.4129,8.09268 -0.2293,8.27628 0.1836,0.1836 7.5733,0.40604 16.4215,0.49431 15.6533,0.15616 16.226,0.10536 21.2106,-1.88141 2.8176,-1.12304 10.4905,-3.51287 17.051,-5.31074 6.5604,-1.79786 14.8824,-4.42015 18.4931,-5.82731 5.8407,-2.27616 6.6183,-2.81704 7.0474,-4.9019 0.7608,-3.69711 2.0852,-5.59651 4.6403,-6.65486 1.3026,-0.53954 2.5819,-1.65408 2.8431,-2.47675 0.8049,-2.53626 4.3465,-6.20055 7.7552,-8.02394 3.1022,-1.65945 4.0232,-1.72939 20.1953,-1.53384 16.3682,0.19793 17.0855,0.27352 21.0739,2.22104 5.3244,2.59991 11.8619,10.67819 18.4108,22.74994 2.1958,4.04777 1.7918,12.10813 -0.9504,18.95971 l -1.8926,4.72882 -11.612,0.21804 c -11.5201,0.21633 -11.6157,0.233 -12.0866,2.10938 -1.0496,4.18204 -2.8063,4.78693 -13.1534,4.52925 -5.2242,-0.13009 -10.1361,-0.57773 -10.9153,-0.99475 -0.7792,-0.41701 -1.6488,-1.9952 -1.9324,-3.50709 l -0.5157,-2.7489 -6.6368,0 c -7.6829,0 -11.665,-1.32894 -13.0428,-4.35273 -1.1381,-2.49789 0.7085,-2.74605 -26.645,3.58062 -11.0536,2.55663 -21.6096,4.88632 -23.4577,5.1771 -4.0351,0.63487 -3.9637,0.40828 -4.3233,13.72213 -0.2445,9.05073 -0.4467,10.18236 -2.4862,13.91876 l -2.22,4.06706 1.3187,3.97019 c 0.7253,2.1836 3.2803,7.09198 5.6779,10.90751 6.215,9.89087 8.706,14.18946 19.777,34.12801 5.4155,9.75317 10.0114,17.91038 10.2131,18.12711 0.2018,0.21674 9.8231,0.39501 21.3807,0.39616 24.9262,0.002 26.1368,0.25331 26.1368,5.4156 0,3.66746 -1.3958,15.85534 -2.0712,18.08452 -0.3827,1.26347 -1.0168,1.37205 -5.3208,0.91112 l -4.8863,-0.52327 -4.452,5.78802 c -2.4485,3.18341 -6.5637,7.86719 -9.1448,10.4084 l -4.6929,4.62037 -8.5571,0.65942 c -4.7064,0.36268 -10.6372,0.67747 -13.1794,0.69954 l -4.6223,0.0401 -6.3264,-6.10805 c -3.4795,-3.35943 -8.4434,-8.94534 -11.0308,-12.41314 -5.5226,-7.40168 -4.6359,-7.09246 -22.7394,-7.92946 l -12.2988,-0.56862 -12.6636,-16.24248 c -6.965,-8.93337 -13.8437,-17.59318 -15.286,-19.24404 l -2.6223,-3.00153 -4.7288,2.59509 -4.7288,2.5951 -34.0763,-0.16704 -34.0763,-0.16704 -0.4397,1.75569 c -0.2418,0.96563 -1.2703,5.44328 -2.2855,9.95036 l -1.8458,8.19466 15.7141,-0.43738 c 15.6008,-0.43422 15.7294,-0.42418 17.8406,1.39176 1.9734,1.69744 2.1265,2.27381 2.1265,8.00542 0,3.39696 -0.2821,7.50627 -0.6268,9.1318 l -0.6268,2.95551 -6.9723,0 -6.9722,0 -5.6909,6.70314 c -10.7439,12.65502 -13.374,14.0079 -28.0483,14.42767 -9.205,0.26331 -11.5361,0.0957 -13.6139,-0.97875 -3.7957,-1.96283 -7.6228,-6.44206 -12.1785,-14.25384 -3.79,-6.49861 -4.3469,-7.09644 -7.0146,-7.53006 -3.3703,-0.54783 -5.0081,-1.73627 -6.5789,-4.77374 -1.271,-2.45796 -1.5145,-11.46895 -0.3593,-13.29781 0.5892,-0.93274 3.0181,-1.24059 11.5102,-1.45884 l 10.7635,-0.27664 -0.3336,-9.35453 c -0.1834,-5.145 -0.5557,-9.57677 -0.8274,-9.84839 -0.2716,-0.27162 -14.0844,-0.66443 -30.6951,-0.8729 l -30.2012,-0.37906 -2.5068,3.41086 c -2.9306,3.9874 -30.5369,33.00716 -32.448,34.10943 -0.7147,0.41218 -6.1258,0.6693 -12.0246,0.57138 -12.3294,-0.20466 -10.8284,-0.9006 -19.2492,8.92496 -2.9721,3.46779 -7.5412,8.52171 -10.1538,11.23093 l -4.75,4.92585 -11.8448,-0.0173 c -9.8705,-0.0144 -12.3703,-0.2618 -14.9974,-1.48407 z m 199.2266,-5.88232 c 1.3949,-0.59323 5.0188,-3.69651 8.0531,-6.89619 l 5.5169,-5.81757 -20.8856,-0.5312 c -11.487,-0.29215 -22.2155,-0.70173 -23.8411,-0.91017 -1.6255,-0.20844 -2.9555,-0.24229 -2.9555,-0.0752 0,0.57662 5.768,9.40636 8.0698,12.35344 l 2.3084,2.95551 10.599,0 c 7.2079,0 11.4103,-0.34509 13.135,-1.07861 z m -173.0102,-6.1802 c 2.321,-1.40099 10.2498,-11.36159 9.5418,-11.98711 -0.1606,-0.14195 -11.5526,-0.51121 -25.3154,-0.82056 -17.4786,-0.39288 -25.0233,-0.3102 -25.0233,0.27425 0,0.87048 9.8382,13.42478 11.3526,14.48678 0.4749,0.33307 6.7154,0.37916 13.8678,0.10242 10.9633,-0.42418 13.4079,-0.74682 15.5765,-2.05578 z m 373.6531,-5.29935 c 2.2373,-2.57224 3.7939,-4.84606 3.4592,-5.05294 -0.899,-0.55561 -45.2071,-2.26896 -45.7086,-1.7675 -1.1042,1.10421 3.6785,6.18687 7.6808,8.16248 3.9981,1.97357 5.314,2.1755 16.9449,2.60013 6.9356,0.25321 12.8229,0.52209 13.083,0.59751 0.2602,0.0754 2.3035,-1.96744 4.5407,-4.53968 z m -169.3398,-13.49683 c 0,-3.15271 -0.3117,-5.37086 -0.7192,-5.11898 -0.3956,0.24447 -17.9513,0.50081 -39.0127,0.56964 l -38.2935,0.12516 0.011,2.03831 c 0.026,4.84493 0.6029,5.44195 5.7809,5.97812 11.8206,1.22401 25.4411,1.75101 47.9986,1.85717 l 24.2352,0.11405 0,-5.56347 z m 186.0068,0.63762 c 0,-1.40879 0.22,-4.33475 0.4805,-6.50212 l 0.4736,-3.94068 -38.1139,0 -38.114,0 0.2655,4.50039 c 0.1987,3.36891 0.595,4.59521 1.5762,4.87756 1.5189,0.43704 28.7354,1.88442 52.1456,2.7731 8.8862,0.33734 17.3094,0.66731 18.7182,0.73327 2.3878,0.11179 2.5619,-0.0538 2.5683,-2.44152 z m -368.572,-1.97034 c 0.2687,-1.62553 0.4924,-4.57499 0.4972,-6.55434 l 0.01,-3.59883 -32.5106,-0.96465 c -17.8808,-0.53056 -34.7418,-1.17818 -37.4688,-1.43917 l -4.9581,-0.47451 0.2293,7.00833 0.2294,7.00834 24.8263,0.56542 c 23.7377,0.54063 35.8204,0.87603 44.6235,1.2387 l 4.0346,0.16622 0.4885,-2.95551 z m 28.0785,-2.49421 c 2.8242,-2.99735 9.6569,-10.22137 15.1837,-16.05336 5.5268,-5.83199 10.0487,-10.78869 10.0487,-11.01489 0,-0.2262 -1.2301,-0.55488 -2.7336,-0.73041 -2.5919,-0.30259 -3.2549,0.20337 -12.7958,9.76547 l -10.0622,10.0846 -10.8482,0 -10.8483,0 0,3.04255 c 0,1.67339 -0.2255,4.68801 -0.5012,6.69915 l -0.5012,3.65661 8.9616,0 8.9615,0 5.135,-5.44972 z m 260.0968,-1.68321 0,-4.76851 -9.9472,0.12822 -9.9472,0.12822 -5.2244,-5.85507 c -2.8734,-3.22029 -8.7409,-9.83139 -13.0388,-14.69132 -7.0924,-8.01972 -9.5246,-9.90261 -9.5246,-7.37357 0,0.49096 5.8195,8.33393 12.9321,17.42883 7.1127,9.09489 13.1871,16.94883 13.4988,17.4532 0.5578,0.90253 9.0024,1.99219 17.1136,2.20829 l 4.1377,0.11023 0,-4.76852 z m -139.6015,-11.97936 c 0.918,-4.00964 1.8927,-8.4429 2.1661,-9.8517 l 0.4969,-2.56144 -11.9206,0 -11.9205,0 0,6.19509 c 0,3.40729 0.2255,7.84055 0.5012,9.85169 l 0.5012,3.65661 9.2533,0 9.2534,0 1.669,-7.29025 z m 145.7198,1.41588 c 0.3963,-0.36029 -3.9166,-9.62926 -15.0331,-32.30816 l -11.1826,-22.8139 0,-6.14838 c 0,-6.03181 -0.037,-6.14846 -1.9704,-6.15228 -2.3354,-0.005 -8.4778,3.09317 -9.0405,4.55939 -0.2168,0.56501 -0.7583,5.00166 -1.2033,9.8592 -0.4451,4.85754 -1.1778,10.6606 -1.6283,12.89567 -0.8799,4.36578 -4.6864,10.83174 -7.154,12.15233 -1.3709,0.73372 -0.7746,1.60651 6.3148,9.24198 4.3058,4.63746 9.2792,10.27973 11.052,12.5384 3.5542,4.52836 5.4351,5.81288 9.5021,6.48916 2.4564,0.40846 19.8439,0.14059 20.3433,-0.31341 z m 21.4157,-8.90317 c -6.6133,-12.47143 -16.6254,-29.9051 -21.6736,-37.73935 -5.3956,-8.37333 -5.8296,-9.21499 -7.871,-15.26277 l -1.7293,-5.12288 -5.7233,-0.2337 -5.7233,-0.2337 0.3819,5.75065 c 0.3581,5.39313 0.8944,6.7796 8.6257,22.3015 4.5341,9.10296 10.6964,21.78209 13.6941,28.17584 l 5.4503,11.625 9.7396,0 9.7396,0 -4.9107,-9.26059 z m -321.6019,2.36441 c 4.3448,-8.85809 14.9488,-27.57025 21.7011,-38.29455 8.5923,-13.64647 8.5004,-13.45262 7.8974,-16.66698 -0.4984,-2.65658 -0.6574,-2.76941 -3.9043,-2.76941 -3.3263,0 -3.4066,-0.0638 -4.6411,-3.687 -0.691,-2.02786 -1.2563,-4.33316 -1.2563,-5.12289 0,-1.11557 -0.6154,-1.43587 -2.7585,-1.43587 -2.7267,0 -2.7585,0.0392 -2.7585,3.40357 0,5.73489 -2.1827,11.20151 -7.6831,19.24241 -4.5473,6.64748 -30.9355,49.62047 -30.9355,50.37812 0,0.14988 4.8891,0.27251 10.8647,0.27251 l 10.8648,0 2.6093,-5.31991 z m 39.8327,-3.28781 8.581,-8.60774 -4.5082,-4.98167 c -5.2299,-5.7793 -9.5452,-14.01375 -10.8774,-20.75626 -0.5139,-2.60084 -1.0493,-4.88474 -1.1899,-5.07533 -0.9457,-1.28192 -27.8041,44.71092 -27.8041,47.61218 0,0.2291 6.1239,0.41654 13.6087,0.41654 l 13.6088,0 8.5811,-8.60772 z m 192.14,-11.08279 c 4.3381,-1.62746 8.9619,-4.75534 16.9127,-11.44084 4.5271,-3.80663 4.7222,-4.12834 5.7338,-9.45763 0.5759,-3.03432 1.4506,-9.27959 1.9437,-13.87837 l 0.8964,-8.36143 -13.4181,-0.50112 c -39.688,-1.48222 -109.3322,-2.18686 -135.3095,-1.36903 -15.0232,0.47297 -34.9194,0.85995 -44.2137,0.85995 -9.2943,0 -19.6121,0.22937 -22.9286,0.50972 -7.1319,0.60286 -6.9156,-0.006 -4.3817,12.34296 3.6943,18.0045 10.0754,27.80422 19.9499,30.63756 3.7809,1.08487 49.0218,1.85414 122.01,2.07467 46.7733,0.14132 48.7976,0.087 52.8051,-1.41644 z m 62.4853,-57.34974 c 0.3073,-0.75858 0.7518,-7.71014 0.9877,-15.44792 0.3516,-11.52736 0.2303,-14.19454 -0.6714,-14.76547 -2.3292,-1.47484 -23.3235,-0.43427 -24.9967,1.23895 -0.2049,0.20486 0.5354,1.74448 1.6451,3.42137 1.1097,1.67689 3.6511,6.30127 5.6476,10.27639 4.1956,8.3541 8.1957,13.151 12.6629,15.18552 3.9106,1.78103 4.0393,1.78351 4.7248,0.0912 z m -283.6725,-9.69522 c 8.2014,-1.45332 11.7085,-2.91655 13.2517,-5.52896 1.6132,-2.73095 6.7935,-15.65331 6.7935,-16.94658 0,-1.62161 -3.7656,-4.38207 -7.5182,-5.51145 -2.0714,-0.62341 -6.7245,-1.13347 -10.3401,-1.13347 l -6.5739,0 0,11.31796 c 0,6.22488 -0.2256,12.96344 -0.5012,14.97458 -0.2757,2.01113 -0.3408,3.65661 -0.1448,3.65661 0.1961,0 2.4609,-0.37291 5.033,-0.82869 z m 385.2617,-14.60441 c 0.7065,-1.84116 0.5822,-28.54531 -0.135,-28.98854 -2.6207,-1.61967 -34.6484,-3.31976 -36.0637,-1.91432 -0.3091,0.30695 -0.7995,2.85248 -1.0897,5.65673 l -0.5278,5.09863 6.7342,0.58601 c 3.7037,0.3223 8.0617,0.54428 9.6843,0.49329 2.2073,-0.0694 3.1636,0.30578 3.7971,1.48961 0.7212,1.34748 2.2582,12.43402 2.3023,16.60553 0.016,1.52252 1.8628,1.92747 9.5843,2.10163 4.1216,0.093 5.3374,-0.14716 5.714,-1.12857 z m -74.0004,-5.15938 c 7.369,-1.7084 17.7481,-4.03942 23.0645,-5.18003 10.6645,-2.28801 10.1238,-1.7355 7.603,-7.76858 l -1.0642,-2.54702 -17.5601,5.04881 c -9.6581,2.77685 -20.8408,6.16662 -24.8504,7.53283 -6.967,2.37385 -7.2903,2.58623 -7.2903,4.78909 0,2.27067 0.05,2.29707 3.3496,1.76809 1.8422,-0.29534 9.3788,-1.93478 16.7479,-3.64319 z m -395.123,-10.49449 c 0.1703,-5.8275 0.5953,-10.88142 0.9444,-11.23094 0.3492,-0.34951 5.8368,-0.81281 12.1948,-1.02955 l 11.56,-0.39406 0,-3.94068 0,-3.94068 -18.8056,-0.66131 c -13.7885,-0.48487 -19.0452,-0.42207 -19.7034,0.23541 -0.5902,0.58949 -0.9901,6.14898 -1.1673,16.22699 l -0.2696,15.33027 7.4686,0 7.4685,0 0.3096,-10.59545 z m 220.1569,9.52604 c 25.575,-0.062 60.3317,0.0645 77.2372,0.28127 30.7192,0.39384 30.7405,0.39297 36.1075,-1.46023 3.766,-1.30036 5.5567,-2.35986 5.9942,-3.54661 0.9277,-2.51609 1.6704,-15.48469 0.8868,-15.48469 -0.3719,0 -7.0046,1.26324 -14.7392,2.80719 -26.1869,5.22735 -26.0968,5.22277 -84.6009,4.29935 -56.8164,-0.89678 -98.7556,-2.03134 -116.3878,-3.14857 -9.0376,-0.57265 -12.1357,-1.09357 -16.2186,-2.72698 -2.7758,-1.11052 -5.2596,-2.01912 -5.5195,-2.01912 -0.2599,0 -0.7032,1.86197 -0.9851,4.13771 l -0.5124,4.13771 6.5638,6.87029 6.5638,6.87029 29.5551,-0.45241 c 16.2553,-0.24882 50.4801,-0.50317 76.0551,-0.5652 z m 275.7516,-4.01842 c 2.1883,-8.71163 1.9354,-9.83485 -4.2346,-18.8115 -9.2973,-13.52621 -8.6578,-13.0131 -17.3433,-13.91475 -9.863,-1.02387 -28.8629,-1.0196 -30.781,0.007 -0.8339,0.44633 -2.029,1.80302 -2.6557,3.01487 l -1.1394,2.20337 13.5444,0.93239 c 14.9241,1.02736 20.681,2.09831 21.4976,3.99916 0.4568,1.06333 1.0467,14.35656 1.0962,24.70185 l 0.014,2.95535 9.3618,0 9.3618,0 1.2781,-5.08783 z m -48.704,0.9797 c -0.2919,-1.82599 -0.6033,-3.38642 -0.6918,-3.46761 -0.088,-0.0812 -2.9321,-0.40429 -6.3191,-0.71798 l -6.1581,-0.57035 0.2471,3.44686 0.2471,3.44687 3.9407,0.46728 c 2.1674,0.25701 5.1387,0.523 6.6029,0.5911 l 2.6621,0.12382 -0.5309,-3.31999 z m -373.2468,-6.00026 c 0,-5.20458 -1.3116,-5.79301 -22.0678,-9.90048 -10.1866,-2.01584 -19.1506,-3.65843 -19.9199,-3.65018 -0.7693,0.008 -1.707,0.81296 -2.0838,1.78828 -0.3767,0.97532 -1.6121,2.63582 -2.7453,3.69001 l -2.0604,1.91669 17.1484,3.45217 c 18.2871,3.68143 28.114,5.5069 30.3496,5.63788 1.0873,0.0637 1.3792,-0.55743 1.3792,-2.93437 z m -95.3644,-5.20323 c 0,-9.45943 1.3517,-19.41723 2.8428,-20.94262 0.9545,-0.9765 4.0304,-1.18221 17.6777,-1.18221 9.0871,0 16.522,-0.24291 16.522,-0.53979 -3e-4,-1.71245 -1.7426,-4.61657 -3.2553,-5.42615 -0.9649,-0.5164 -4.9718,-1.43005 -8.9042,-2.03033 -23.5799,-3.59943 -24.1268,-3.55094 -32.628,2.89324 -3.3261,2.52123 -7.952104,6.52861 -10.280204,8.90529 l -4.2328,4.32125 1.3221,9.70971 c 0.7271,5.34034 1.4328,9.82046 1.5682,9.95582 0.3348,0.33487 11.873004,1.53148 16.018104,1.66121 l 3.3496,0.10484 0,-7.43026 z m 291.5444,-34.75166 c 5.8157,-0.70974 15.4542,-2.10206 21.419,-3.09404 l 10.845,-1.8036 4.5894,-3.92602 c 2.5242,-2.15931 8.4021,-6.49656 13.0619,-9.63833 4.6599,-3.14178 8.4725,-6.12239 8.4725,-6.62358 0,-1.22535 -2.8899,-11.27171 -3.5493,-12.33864 -0.3233,-0.52304 -1.7225,0.23547 -3.655,1.98139 -7.8312,7.07496 -15.1276,10.62006 -37.9847,18.45549 -18.6927,6.40786 -22.9784,7.0983 -44.2644,7.13101 -19.9146,0.0306 -39.2282,-2.65225 -58.322,-8.10154 l -8.6695,-2.47422 -12.9066,-12.63156 c -18.0612,-17.67633 -25.6651,-27.3123 -31.6785,-40.14453 l -3.0088,-6.42063 -0.1245,-26.38066 c -0.068,-14.50937 0.1289,-27.08998 0.4387,-27.95693 1.6042,-4.48879 12.2546,-25.25061 15.7676,-30.73729 5.532,-8.63994 14.6624,-19.43476 22.2986,-26.36346 7.1625,-6.49893 17.4667,-14.39477 21.0355,-16.11907 4.8928,-2.36394 30.9273,-3.84393 58.7161,-3.33785 14.0879,0.25656 29.3862,0.94971 33.996,1.54032 9.2086,1.1798 6.3073,-0.17433 34.0171,15.87677 4.2464,2.45974 8.0914,4.3487 8.5445,4.19767 0.7419,-0.24732 6.1967,-13.2773 6.1967,-14.80231 0,-0.80004 -18.2935,-9.85462 -29.1611,-14.43361 -7.5806,-3.19408 -9.3671,-3.61147 -21.2796,-4.97178 -10.858,-1.2399 -18.8577,-1.48499 -48.4704,-1.48499 -19.5063,0 -39.5887,0.2982 -44.6275,0.66266 l -9.1614,0.66265 -8.9757,7.66004 c -11.019,9.40371 -24.004,23.55122 -28.386,30.92719 -3.9983,6.73015 -17.5848,38.39623 -19.7341,45.99425 -1.2739,4.50343 -1.692,9.52127 -2.276,27.31393 -0.8475,25.82239 -0.5881,27.95039 5.863,48.10028 l 4.3686,13.64511 8.991,10.24576 c 4.945,5.63517 14.2723,15.42152 20.7273,21.74743 l 11.7363,11.50167 5.5169,1.28969 c 9.1655,2.14257 22.3528,4.32771 31.5254,5.22375 4.7683,0.46579 10.0882,0.98471 11.8221,1.15315 7.6159,0.73991 46.3176,-0.30907 56.2859,-1.52557 z m -9.572,-16.16421 c 6.3446,-0.79554 22.7411,-5.98386 39.7828,-12.58843 6.32,-2.44935 8.8672,-3.98295 14.3576,-8.64416 6.6511,-5.64671 16.6578,-15.7982 22.0033,-22.32166 3.1467,-3.84015 3.7866,-6.24243 7.2084,-27.06101 2.8223,-17.17083 3.5132,-39.19521 1.5942,-50.81503 -0.7443,-4.50666 -2.4373,-11.5632 -3.7621,-15.68121 l -2.4089,-7.48729 -11.9099,-11.83569 c -8.4587,-8.40603 -13.3943,-12.66024 -17.0327,-14.68125 -2.8176,-1.56507 -9.1035,-5.14929 -13.9688,-7.96495 -4.8652,-2.81564 -11.9584,-6.13959 -15.7627,-7.38653 l -6.9168,-2.26717 -35.8602,0 c -24.4208,0 -38.3543,0.32014 -43.6788,1.00361 -7.6088,0.97667 -7.9818,1.1211 -13.899,5.38149 -18.0007,12.96064 -34.3664,32.53796 -44.1836,52.85449 -6.4907,13.43234 -6.2132,11.64146 -6.2132,40.08447 l 0,25.4352 3.6065,7.20426 c 4.96,9.90803 10.9762,17.60352 25.278,32.33374 12.9868,13.37586 14.9973,14.97581 21.7293,17.29195 4.7007,1.61728 22.3688,4.96699 35.293,6.69124 9.9258,1.32421 35.7162,1.58587 44.7436,0.45393 z m 81.258,-17.84487 c 2.8727,-2.02538 8.1191,-5.9226 11.6588,-8.66047 8.265,-6.39285 8.2689,-6.40374 13.3001,-37.30955 4.4964,-27.62001 3.8378,-35.50047 -6.2603,-74.9174 -2.5908,-10.11292 -5.2047,-18.51405 -6.4578,-20.75623 -2.4548,-4.39209 -6.7772,-8.86133 -16.7679,-17.33762 l -7.2023,-6.11054 -1.4408,3.40623 c -0.7925,1.87343 -2.1057,5.27799 -2.9183,7.56569 l -1.4774,4.15947 9.5329,9.6329 c 8.2611,8.34772 9.7995,10.3164 11.5308,14.7558 8.2804,21.23279 9.0227,45.76623 2.5036,82.75424 -1.1078,6.28538 -2.3545,12.66928 -2.7704,14.18644 -0.4499,1.64126 -3.4909,5.8819 -7.5084,10.47036 l -6.7522,7.71188 1.3058,4.50422 c 1.6371,5.64723 3.2782,9.6271 3.9696,9.6271 0.2922,0 2.8816,-1.65713 5.7542,-3.68252 z m 45.3449,-19.99538 c 6.6884,-2.51182 9.2337,-5.35378 12.6756,-14.15261 9.6927,-24.7789 16.1336,-56.15776 16.1568,-78.71302 0.01,-6.45005 0.1563,-7.26333 1.1804,-6.41336 1.6566,1.37482 2.5128,-1.07008 1.2205,-3.48485 -1.7126,-3.19991 -31.4647,-34.16047 -47.3343,-49.25682 -26.1674,-24.89237 -25.8063,-24.6182 -36.2873,-27.54947 -9.3731,-2.62142 -8.6192,-3.56754 -8.6192,10.81722 l 0,12.48445 6.108,5.11407 c 3.3595,2.81273 10.9213,9.76285 16.8041,15.44469 l 10.696,10.33062 3.2582,11.67468 c 5.8921,21.11244 10.9402,44.00083 12.4058,56.24936 0.7214,6.02844 -0.7089,19.15456 -4.389,40.28093 -1.7116,9.82526 -3.1119,18.30057 -3.1119,18.83403 0,1.60384 13.6916,0.42238 19.2363,-1.65992 z M 189.36606,167.02755 c 0.3316,-1.62553 0.373,-2.95551 0.092,-2.95551 -0.6707,0 -14.4418,7.70261 -17.2332,9.63903 -3.2125,2.22849 -6.246,6.56208 -6.922,9.88851 -0.328,1.61387 -2.2025,8.84864 -4.1655,16.07726 -1.963,7.22861 -4.5013,17.86844 -5.6406,23.64407 -1.1393,5.77562 -2.2151,11.21238 -2.3906,12.0817 -0.4571,2.26342 6.4763,11.37823 11.9978,15.77279 5.3292,4.24154 12.2478,7.96552 18.3536,9.8789 l 4.3347,1.35839 0.4854,-46.21481 c 0.2669,-25.41816 0.7567,-47.5448 1.0883,-49.17033 z m 51.6255,73.53401 c 0,-7.44693 1.8275,-22.07908 3.9449,-31.58496 4.8861,-21.93576 14.5668,-42.19133 27.8802,-58.33591 6.4491,-7.82058 32.394,-30.50769 35.9545,-31.43988 1.5172,-0.39721 14.817,-1.11629 29.5551,-1.59796 34.1848,-1.11723 74.9097,0.35934 86.8855,3.15022 1.8387,0.4285 9.587,3.612 17.2184,7.07446 7.6314,3.46244 14.1955,6.29536 14.587,6.29536 0.3916,0 0.7116,-5.27544 0.7116,-11.73016 0,-11.52018 -0.032,-11.73735 -1.7733,-12.13179 -0.9753,-0.2209 -6.2065,-1.52883 -11.625,-2.90651 -26.7385,-6.79847 -34.1795,-7.28464 -106.7923,-6.97741 l -59.1102,0.2501 -9.0636,4.16923 c -8.8169,4.0558 -34.6133,17.50802 -37.1976,19.39772 -2.2039,1.61153 -3.1031,19.62365 -3.552,71.14913 l -0.42,48.21608 5.0191,1.58923 c 7.9921,2.53056 7.7777,2.65703 7.7777,-4.58695 z M 395.02986,93.730938 c 1.3713,-6.36618 5.974,-37.69781 6.4006,-43.57056 l 0.5173,-7.119284 -19.9887,-1.789322 c -20.1361,-1.802515 -40.3316,-3.314122 -40.5753,-3.037008 -0.5238,0.59578 2.6327,52.711944 3.3379,55.109524 0.3666,1.2462 2.2907,1.3863 21.8296,1.58948 11.7851,0.12255 22.9281,0.30554 24.7621,0.40664 2.8924,0.15945 3.3852,-0.0513 3.7165,-1.58947 z m 16.0687,-46.23654 c 3.2559,-1.66103 7.9202,-6.407451 11.6828,-11.888464 2.3784,-3.464662 2.4324,-3.74693 2.3373,-12.216102 l -0.097,-8.669492 -50.0467,0.155481 c -48.353,0.15022 -110.9374,1.311137 -124.3283,2.306244 l -6.5022,0.483186 0,8.576274 c 0,4.71695 0.266,8.572924 0.5911,8.568831 0.3251,-0.0041 10.167,-0.723462 21.8708,-1.598597 42.5369,-3.180631 60.0711,-2.971022 102.8517,1.229525 10.6201,1.042771 22.6331,2.140212 26.6955,2.438758 9.4922,0.697581 11.3796,2.024442 11.469,8.063025 0.033,2.233041 0.1629,4.060321 0.2885,4.060621 0.1256,3e-4 1.5602,-0.67888 3.188,-1.50929 z"
     id="path4597"
     style="fill:#000000" />
  <path
     d="m 244.20085,459.19343 c 0,-3.90194 -0.79722,-4.10259 -4.40466,-1.10868 -2.77754,2.30516 -4.40466,2.50199 -4.40466,0.53284 0,-1.71746 1.32139,-3.93935 2.93644,-4.93751 4.42026,-2.73188 3.52726,-13.21398 -1.12574,-13.21398 -2.2342,0 -4.75329,-2.64279 -5.59798,-5.87288 -1.78477,-6.82499 -7.95849,-7.96395 -7.95849,-1.46822 0,3.48385 -1.18106,3.2236 -5.64964,-1.24499 -3.99447,-3.99444 -5.7884,-10.23159 -6.12323,-21.28919 -0.87076,-28.75629 -1.35383,-27.6722 11.77287,-26.42037 10.69699,1.02012 11.74513,0.50267 11.73871,-5.79528 -0.006,-5.52112 -4.24248,-9.28363 -21.01381,-18.66119 -37.02284,-20.70104 -38.39137,-22.50968 -56.73686,-74.9832 -9.46502,-27.07276 -10.48563,-32.65014 -8.57847,-46.87909 2.1623,-16.13244 2.16689,-16.13834 4.12124,-5.29265 1.07609,5.97177 3.73915,13.00569 5.9179,15.63093 4.13423,4.98144 26.21196,17.2341 27.93998,15.50609 0.84594,-0.84594 4.35745,-90.5031 4.32232,-110.35919 -0.0126,-7.12359 0.41814,-7.39111 19.96071,-12.39674 8.41248,-2.15477 13.40696,-5.33176 14.95324,-9.51178 1.27698,-3.45199 1.69064,21.06318 0.91925,54.47816 l -1.40253,60.75451 7.60543,0 c 6.42927,0 7.85305,-1.58938 9.2067,-10.27755 0.8807,-5.65264 2.36342,-15.12399 3.29492,-21.04742 3.68038,-23.40351 26.07979,-68.51402 34.02032,-68.51402 1.57282,0 -0.0856,4.1363 -3.68544,9.19177 -3.59981,5.05547 -10.94135,19.2605 -16.31452,31.56674 -8.92612,20.44356 -9.77251,24.92707 -9.80527,51.94052 -0.0531,43.7995 4.61687,56.51313 30.38402,82.71803 18.88903,19.20994 22.56904,21.63459 37.11826,24.45614 18.54182,3.59583 85.35676,3.77254 107.33429,0.28386 9.59719,-1.52344 19.69937,-5.91244 28.60735,-12.42875 11.60341,-8.48803 13.50684,-11.22452 12.09288,-17.38533 -0.92295,-4.02143 -2.95729,-8.10227 -4.52073,-9.06853 -1.66544,-1.02929 -1.10226,-3.2012 1.35989,-5.24462 3.47475,-2.88379 4.53889,-1.69474 6.14494,6.8662 1.06834,5.69469 2.9661,10.35397 4.21723,10.35397 4.69549,0 26.83281,-21.21059 27.05531,-25.92267 0.14418,-3.05317 0.79193,-3.52187 1.71291,-1.2394 2.39411,5.9332 23.65127,4.50249 30.18538,-2.03162 7.53464,-7.53462 16.88597,-38.47264 20.61296,-68.19601 3.62695,-28.92547 5.98573,-32.87991 5.98573,-10.03493 0,22.27432 -8.28109,53.68763 -25.99666,98.61531 -21.41837,54.3182 -19.99496,52.05465 -36.09729,57.40299 -13.34533,4.4326 -14.25351,5.37406 -14.25351,14.7758 l 0,10.04155 16.05828,0 c 12.66778,0 15.72032,0.88065 14.45768,4.17101 -1.03726,2.70308 0.80371,4.62922 5.23095,5.47299 6.57087,1.25232 6.58632,1.31724 0.40441,1.70187 -5.33555,0.33198 -6.77608,2.76871 -8.48209,14.34799 -2.10951,14.31785 -6.5956,28.57855 -6.928,22.0233 -0.10248,-2.0188 -3.40187,-3.67055 -7.33221,-3.67055 -5.5415,0 -7.4207,1.81317 -8.36935,8.07521 l -1.22329,8.07521 -0.43997,-8.07521 c -0.41072,-7.53828 -6.93112,-11.26994 -10.2618,-5.87288 -0.74753,1.21128 -16.35195,1.32213 -34.67649,0.24637 -44.61901,-2.61951 -122.5843,-2.86189 -163.43542,-0.50809 l -33.21552,1.91385 1.90689,11.2868 c 1.04879,6.20766 1.13005,11.28671 0.18057,11.28671 -0.94949,0 -1.72633,-2.1439 -1.72633,-4.7642 z m 261.88229,-38.5483 c 0.51103,-4.44137 0.44883,-11.70906 -0.13831,-16.15043 -0.98077,-7.41981 -2.1128,-8.07521 -13.94809,-8.07521 -7.08437,0 -12.8807,0.72632 -12.8807,1.61405 0,0.88772 2.14146,5.84296 4.75877,11.01165 10.27798,20.29697 20.58794,25.68211 22.20827,11.59994 l 6e-5,0 z m -271.6309,-7.04597 c 1.92402,-1.5968 4.38511,-6.94123 5.46908,-11.87651 2.32225,-10.57313 -1.46499,-14.00119 -15.54145,-14.06751 l -9.54343,-0.045 0,16.46876 0,16.46877 8.05879,-2.02265 c 4.43233,-1.11244 9.63298,-3.32909 11.55701,-4.92589 l 0,0 z m 237.1316,-17.10699 c 5.83955,-2.2202 7.53226,-4.90022 7.53226,-11.92569 l 0,-9.06192 -13.94809,2.38225 c -17.27338,2.9502 -183.38991,3.10628 -208.48729,0.19589 -16.0367,-1.85967 -18.35275,-1.50932 -18.35275,2.77624 0,2.69747 2.87313,7.96281 6.38474,11.70074 l 6.38474,6.79625 106.47706,0 c 62.07662,0 109.618,-1.19417 114.00933,-2.86376 z"
     id="path4699"
     style="fill:#ff0000;fill-opacity:1;stroke:#7e7e7e;stroke-width:2.93644071;stroke-opacity:1" />
  <path
     d="m 249.95288,74.291949 c -2.15499,-19.380508 -4.99149,-35.237288 -6.30332,-35.237288 -1.31183,0 -2.23187,-2.973146 -2.04452,-6.606992 0.22396,-4.344127 0.77564,-4.976424 1.61075,-1.846146 1.12458,4.215336 7.39426,4.649183 54.71763,3.786335 29.39613,-0.535981 51.13507,-0.269023 48.30874,0.593238 -4.23673,1.292551 -5.13877,5.073695 -5.13877,21.540466 0,32.891459 1.79817,37.819133 14.2837,39.142815 5.87182,0.622517 -8.86722,1.353979 -32.75344,1.625473 -37.00437,0.420595 -45.13258,1.362479 -54.94128,6.36651 -6.33149,3.23008 -12.03144,5.87288 -12.66656,5.87288 -0.63512,0 -2.91794,-15.856782 -5.07293,-35.237291 z"
     id="path4701"
     style="fill:#cccccc;fill-opacity:1;stroke:#7e7e7e;stroke-width:2.93644071;stroke-opacity:1" />
  <path
     d="m 231.52521,242.69682 c -2.52321,-2.52321 -2.63511,-76.37301 -0.15172,-100.13277 l 1.85484,-17.74618 26.29897,-12.49791 26.29897,-12.497921 68.01462,2.040611 c 37.40804,1.12234 75.28231,3.66028 84.16504,5.63987 15.17563,3.38202 16.20596,4.17212 17.07058,13.09053 0.50609,5.2202 0.22466,9.49127 -0.6254,9.49127 -0.85006,0 -8.53182,-2.82707 -17.07058,-6.28239 -13.73094,-5.55639 -21.6331,-6.3199 -68.38095,-6.60699 -29.07077,-0.17853 -56.15943,0.63642 -60.19704,1.81101 -4.0376,1.17458 -15.70399,10.16823 -25.92531,19.98589 -22.14964,21.27491 -34.38042,45.04622 -40.08794,77.91347 -3.8134,21.95977 -7.243,29.81259 -11.26408,25.79151 z"
     id="path4703"
     style="fill:#cccccc;fill-opacity:1;stroke:#7e7e7e;stroke-width:2.93644071;stroke-opacity:1" />
  <path
     d="m 508.48051,289.85696 c 0,-2.91759 1.48942,-15.94447 3.30982,-28.94863 3.04754,-21.77027 2.70208,-26.31994 -4.35948,-57.41299 l -7.6693,-33.76907 -17.66383,-17.16709 C 467.3256,138.20247 464.4339,133.75583 464.4339,125.3971 c 0,-18.47888 9.50093,-12.97384 54.52841,31.59492 l 35.44154,35.08049 -5.09158,29.05474 c -9.67305,55.19859 -15.34738,67.67427 -32.75655,72.01908 -6.57301,1.64043 -8.07521,1.02852 -8.07521,-3.28937 z"
     id="path4705"
     style="fill:#cccccc;fill-opacity:1;stroke:#7e7e7e;stroke-width:2.93644071;stroke-opacity:1" />
  <path
     d="m 170.25018,252.00853 c -14.21357,-9.65836 -15.86573,-18.81449 -8.55906,-47.43357 4.2319,-16.57569 8.05597,-24.96959 13.53516,-29.70992 12.23447,-10.58467 14.23715,-8.69586 12.13229,11.4424 -1.0376,9.92717 -1.88654,30.40884 -1.88654,45.51483 0,15.106 -1.01465,27.46544 -2.25479,27.46544 -1.24013,0 -7.07531,-3.27563 -12.96706,-7.27918 z"
     id="path4707"
     style="fill:#cccccc;fill-opacity:1;stroke:#7e7e7e;stroke-width:2.93644071;stroke-opacity:1" />
  <path
     d="M 356.36149,92.75396 C 347.54795,91.069086 344.03983,81.239368 344.03983,58.22882 l 0,-18.617247 18.35275,1.336806 c 26.9096,1.960082 37.43962,3.908808 37.43962,6.928715 0,1.475889 -1.48203,12.647898 -3.29339,24.826687 l -3.2934,22.143253 -15.05936,-0.39989 c -8.28265,-0.21994 -18.1037,-0.981873 -21.82456,-1.693184 l 0,0 z"
     id="path4709"
     style="fill:#cccccc;fill-opacity:1;stroke:#7e7e7e;stroke-width:2.93644071;stroke-opacity:1" />
  <path
     d="M 407.15829,40.532441 C 403.3576,34.814538 352.67027,30.304509 291.82585,30.270454 c -37.71996,-0.02111 -45.15006,-0.747424 -46.61171,-4.556419 -0.95635,-2.492217 -1.24523,-4.981212 -0.64195,-5.531099 0.60328,-0.549887 41.06918,-1.960001 89.92421,-3.133587 l 88.82733,-2.133793 0,7.768205 c 0,7.509066 -7.528,22.243781 -11.36439,22.243781 -1.0338,0 -3.19427,-1.977795 -4.80105,-4.395101 z"
     id="path4711"
     style="fill:#d40000;fill-opacity:1;stroke:#7e7e7e;stroke-width:2.93644071;stroke-opacity:1" />
  <path
     d="m 275.72638,376.72762 c -17.76547,-0.75838 -33.78742,-1.13129 -35.60435,-0.82872 -1.98328,0.33029 -3.30349,-0.19646 -3.30349,-1.31807 0,-2.93625 -7.58087,-8.6022 -26.90253,-20.10697 -29.32659,-17.46207 -32.48632,-21.73374 -48.06285,-64.97672 -9.24375,-25.66213 -12.42002,-39.53455 -10.90275,-47.61788 l 0.9832,-5.23805 1.9965,5.87288 c 1.09808,3.23008 4.09291,7.64191 6.65517,9.80405 6.62958,5.59431 20.94146,12.95336 25.19169,12.95336 l 3.60566,0 0.95982,-20.18802 c 0.52791,-11.10342 1.38604,-36.04481 1.90696,-55.42532 0.52093,-19.38051 1.48563,-36.69675 2.1438,-38.48053 0.89963,-2.43823 3.85347,-4.03846 11.90051,-6.44704 5.88711,-1.76209 12.62856,-4.17436 14.98099,-5.3606 l 4.27716,-2.15681 -0.92353,55.95395 -0.92352,55.95395 7.01035,0 c 10.66288,0 12.17277,-1.85741 15.07488,-18.54459 l 2.52005,-14.49037 0.15259,25.69386 c 0.16971,28.57588 2.06109,40.75056 8.24126,53.04837 8.0523,16.02314 34.87699,44.4682 47.07706,49.92077 8.60098,3.84404 22.28973,5.50727 54.16571,6.5813 30.70591,1.03461 64.5983,-1.00158 76.75311,-4.61117 10.63367,-3.15785 29.32877,-15.98291 32.26069,-22.1312 1.75885,-3.68839 2.81377,-4.54115 4.19726,-3.39296 1.30415,1.08235 3.00109,0.92944 5.76671,-0.51962 4.12886,-2.16332 24.17371,-21.46458 24.17371,-23.27694 0,-0.58174 2.41563,-0.39071 5.36806,0.42449 6.15582,1.6997 16.9162,0.44904 22.94077,-2.66639 2.26703,-1.17231 5.41158,-4.24669 6.98789,-6.83194 1.57633,-2.58524 2.86851,-3.9908 2.87152,-3.12347 0.009,2.46241 -18.56926,49.98046 -24.48462,62.62635 -5.67693,12.13619 -7.90162,14.8308 -13.68362,16.574 -2.0188,0.60865 -7.3044,2.76705 -11.74576,4.79646 -9.19708,4.20243 -8.80824,4.09968 -23.22931,6.13827 -14.77238,2.08825 -150.78715,3.08218 -190.39675,1.39132 z"
     id="path4713"
     style="fill:#d40000;fill-opacity:1;stroke:#7e7e7e;stroke-width:1.46822035;stroke-opacity:1" />
  <path
     d="m 238.57932,438.91199 c -1.05038,-0.37667 -3.53629,-3.26142 -5.52425,-6.41055 -3.89585,-6.17143 -8.31693,-7.46818 -10.76098,-3.15631 -1.36444,2.40718 -1.59782,2.384 -3.69682,-0.36706 -3.56918,-4.67798 -2.75552,-6.38036 3.90612,-8.17252 3.43196,-0.9233 8.10878,-2.64433 10.39292,-3.82451 4.66089,-2.40823 9.71325,-12.10799 9.76286,-18.74323 l 0.0323,-4.3123 4.11794,3.94524 4.11795,3.94525 68.92602,-0.10339 c 75.31133,-0.11296 149.65783,-1.82369 153.72691,-3.53728 2.07882,-0.87544 3.19056,0.3006 5.71791,6.04868 7.76289,17.65559 17.77384,28.40923 24.16426,25.957 1.99301,-0.76479 2.33414,-0.41547 1.56124,1.59869 -0.54396,1.41752 -0.98901,3.10281 -0.98901,3.74509 0,0.64229 -2.96782,0.83327 -6.59514,0.42442 -4.22412,-0.47612 -7.41353,-0.0642 -8.87155,1.14588 -1.72423,1.43099 -2.68868,1.47698 -3.97604,0.18961 -2.18624,-2.18623 -7.72617,-2.17871 -11.23929,0.0153 -2.09425,1.30789 -12.97889,1.30459 -45.86196,-0.014 -23.71378,-0.9508 -58.04562,-1.7225 -76.29297,-1.71485 -30.05367,0.0126 -95.35403,2.15603 -106.30394,3.48934 -2.42256,0.29498 -5.26406,0.22815 -6.31443,-0.14851 z"
     id="path4715"
     style="fill:#d40000;fill-opacity:1;stroke:#7e7e7e;stroke-width:1.46822035;stroke-opacity:1" />
  <path
     d="m 277.92871,483.6324 c -6.86393,-0.5089 -13.47092,-1.41765 -14.68221,-2.01945 -6.32773,-3.14377 -13.2514,-17.31363 -15.60522,-31.93736 -0.68397,-4.24934 -0.3159,-5.52289 1.87105,-6.47396 3.7649,-1.63729 159.82887,-2.56922 191.46621,-1.14333 l 25.77123,1.16151 -1.78258,12.47987 c -1.71864,12.03231 -2.01101,12.68044 -8.15257,18.07246 -13.6667,11.99874 -8.04702,11.32325 -91.83537,11.03875 -41.01387,-0.13927 -80.18661,-0.66958 -87.05054,-1.17849 z"
     id="path4717"
     style="fill:#808080;fill-opacity:1;stroke:#7e7e7e;stroke-width:1.46822035;stroke-opacity:1" />
  <path
     d="m 247.75292,392.64709 c -4.44273,-5.27989 -7.39064,-11.01467 -6.2489,-12.15641 0.41681,-0.4168 9.93909,-0.0885 21.16064,0.72956 32.00387,2.33311 157.94778,4.50541 173.83184,2.99828 7.67145,-0.72789 19.52989,-2.34399 26.35209,-3.59132 13.82863,-2.52837 15.15303,-1.97886 13.74624,5.70334 -1.13754,6.21192 -3.75435,7.82118 -14.17895,8.71958 -4.96916,0.42825 -54.41141,1.12017 -109.87167,1.53761 l -100.83683,0.75897 -3.95446,-4.69961 z"
     id="path4719"
     style="fill:#808080;fill-opacity:1;stroke:#7e7e7e;stroke-width:1.46822035;stroke-opacity:1" />
  <path
     d="m 188.36727,502.48801 c 0,-0.34936 7.61396,-13.04432 16.91992,-28.21103 9.30596,-15.1667 17.67608,-30.24212 18.60027,-33.50093 2.39824,-8.45653 3.8657,-9.48156 5.89131,-4.11511 1.04776,2.77585 3.09671,4.96303 5.12665,5.47251 2.03343,0.51036 3.38134,1.95177 3.38134,3.61591 0,1.52199 -4.88878,10.97671 -10.86394,21.01048 -5.97517,10.03378 -12.92202,22.32026 -15.43745,27.3033 l -4.57351,9.06006 -9.5223,0 c -5.23726,0 -9.52229,-0.28584 -9.52229,-0.63519 z"
     id="path4721"
     style="fill:#808080;fill-opacity:1;stroke:#7e7e7e;stroke-width:1.46822035;stroke-opacity:1" />
  <path
     d="m 157.90169,521.11495 -15.04925,-0.47583 0,-5.93158 0,-5.93157 36.33845,1.03465 c 19.98615,0.56905 36.58294,1.24847 36.88175,1.50981 0.29881,0.26135 0.1037,2.81843 -0.43358,5.6824 l -0.97689,5.20723 -20.85561,-0.30964 c -11.47058,-0.1703 -27.62777,-0.52377 -35.90487,-0.78547 z"
     id="path4723"
     style="fill:#808080;fill-opacity:1;stroke:#7e7e7e;stroke-width:1.46822035;stroke-opacity:1" />
  <path
     d="m 159.75776,535.05699 -5.34679,-6.23993 12.94054,-0.39061 c 7.1173,-0.21483 17.89579,0.13297 23.9522,0.7729 l 11.01165,1.16351 -5.35901,5.46703 -5.359,5.46704 -13.2464,0 -13.24639,0 -5.3468,-6.23994 z"
     id="path4725"
     style="fill:#808080;fill-opacity:1;stroke:#7e7e7e;stroke-width:1.46822035;stroke-opacity:1" />
  <path
     d="m 533.47652,521.98111 c -14.0538,-0.84074 -21.60186,-1.88326 -22.36787,-3.08938 -3.36409,-5.29693 -2.08341,-5.49099 36.23849,-5.49099 35.9287,0 37.43962,0.11366 37.43962,2.81636 0,7.02733 -0.98096,7.4733 -15.94045,7.24707 -7.78694,-0.11776 -23.70334,-0.78514 -35.36979,-1.48306 z"
     id="path4727"
     style="fill:#808080;fill-opacity:1;stroke:#7e7e7e;stroke-width:1.46822035;stroke-opacity:1" />
  <path
     d="m 344.88982,508.14189 c -0.49016,-1.27733 -0.8912,-5.24152 -0.8912,-8.80932 l 0,-6.48691 11.17082,0 c 10.84071,0 11.14739,0.0976 10.37779,3.30349 -0.43617,1.81693 -1.24203,5.78112 -1.79079,8.80933 l -0.99775,5.50582 -8.48884,0 c -6.38629,0 -8.70958,-0.57522 -9.38003,-2.32241 z"
     id="path4729"
     style="fill:#808080;fill-opacity:1;stroke:#7e7e7e;stroke-width:1.46822035;stroke-opacity:1" />
  <path
     d="m 504.30981,477.34754 c -14.79151,-31.01041 -16.03049,-36.24594 -8.77555,-37.08268 3.35853,-0.38735 4.32328,0.36382 6.18263,4.81387 1.21173,2.90006 9.16626,17.36707 17.67676,32.14892 8.51049,14.78184 15.47362,27.31616 15.47362,27.85403 0,0.53788 -3.79902,0.96743 -8.44227,0.95456 l -8.44227,-0.0234 -13.67292,-28.6653 0,0 z"
     id="path4731"
     style="fill:#808080;fill-opacity:1;stroke:#7e7e7e;stroke-width:1.46822035;stroke-opacity:1" />
  <path
     d="m 490.87827,519.42016 c -5.88804,-0.79172 -7.33062,-1.84431 -14.28622,-10.42408 -9.82297,-12.11667 -10.00457,-14.84342 -0.3178,-4.77171 l 7.41356,7.70815 10.17342,0 10.17341,0 0,4.40466 c 0,4.81766 -0.0932,4.83949 -13.15637,3.08298 z"
     id="path4733"
     style="fill:#808080;fill-opacity:1;stroke:#7e7e7e;stroke-width:1.46822035;stroke-opacity:1" />
  <path
     d="m 376.02418,527.07998 c 1.05987,-0.42412 2.32621,-0.37196 2.81409,0.11592 0.48787,0.48787 -0.37929,0.83489 -1.92704,0.77113 -1.71039,-0.0705 -2.0583,-0.41835 -0.88705,-0.88705 z"
     id="path4735"
     style="fill:#808080;fill-opacity:1;stroke:#7e7e7e;stroke-width:1.46822035;stroke-opacity:1" />
  <path
     d="m 383.36528,527.07998 c 1.05987,-0.42412 2.32621,-0.37196 2.81409,0.11592 0.48788,0.48787 -0.37929,0.83489 -1.92704,0.77113 -1.71039,-0.0705 -2.0583,-0.41835 -0.88705,-0.88705 z"
     id="path4737"
     style="fill:#808080;fill-opacity:1;stroke:#7e7e7e;stroke-width:1.46822035;stroke-opacity:1" />
  <path
     d=""
     id="path4743"
     style="fill:#808080;fill-opacity:1;stroke:#7e7e7e;stroke-width:1.46822035;stroke-opacity:1" />
  <path
     d="m 352.77839,526.43217 c -20.62006,-0.64117 -30.00601,-1.54787 -30.9179,-2.98674 -0.3445,-0.54358 -0.63141,-2.06197 -0.6376,-3.37419 l -0.0112,-2.38586 30.46557,-0.16823 c 16.75607,-0.0925 34.01683,-0.17512 38.35726,-0.18353 l 7.89168,-0.0153 0.21707,4.95524 0.21707,4.95524 -5.49604,0 c -3.02282,0 -5.70021,-0.33035 -5.94975,-0.73411 -0.63196,-1.02254 -3.55966,-0.91841 -4.64322,0.16515 -0.7096,0.7096 -1.20294,0.7096 -2.33919,0 -1.74129,-1.08746 -4.14189,-1.17069 -4.76335,-0.16515 -0.24954,0.40376 -1.34267,0.6807 -2.42918,0.61542 -1.08652,-0.0653 -10.06905,-0.37036 -19.96118,-0.67795 z"
     id="path4749"
     style="fill:#808080;fill-opacity:1;stroke:#7e7e7e;stroke-width:0.73411018;stroke-opacity:1" />
  <path
     d="m 594.66769,403.46378 c -2.92064,-0.444 -2.93967,-0.46814 -3.53627,-4.48401 -2.10552,-14.17274 -2.06749,-14.02226 -3.69545,-14.62212 -0.86768,-0.31971 -5.34423,-0.78951 -9.94789,-1.044 -4.60365,-0.25448 -8.44723,-0.55014 -8.54128,-0.65703 -0.28859,-0.32798 1.11869,-9.60591 1.51754,-10.00475 1.055,-1.055 32.96613,0.57218 34.92155,1.78069 0.36328,0.22452 0.66051,6.7952 0.66051,14.6015 0,12.26521 -0.15775,14.25382 -1.16121,14.63888 -1.3581,0.52116 -6.04462,0.42522 -10.2175,-0.20916 z"
     id="path4751"
     style="fill:#808080;fill-opacity:1;stroke:#7e7e7e;stroke-width:0.73411018;stroke-opacity:1" />
  <path
     d="m 515.56732,400.38319 c -2.05358,-1.18651 -1.49846,-2.62699 1.46822,-3.80989 5.50906,-2.19663 41.8394,-13.00985 43.71058,-13.00985 1.60388,0 3.60074,5.22777 2.45283,6.42146 -0.48429,0.50359 -10.61494,3.07605 -22.51257,5.71657 -11.89762,2.64052 -22.12756,4.94113 -22.7332,5.11246 -0.60564,0.17133 -1.67928,-0.0225 -2.38586,-0.43075 z"
     id="path4753"
     style="fill:#808080;fill-opacity:1;stroke:#7e7e7e;stroke-width:0.73411018;stroke-opacity:1" />
  <path
     d="m 204.12108,389.70464 c -0.80752,-0.16252 -10.25755,-2.00651 -21.00006,-4.09775 l -19.53183,-3.80226 2.55944,-3.56257 c 2.1993,-3.06126 2.83006,-3.50558 4.48258,-3.15761 1.05772,0.22273 8.0346,1.58115 15.50417,3.01872 20.47754,3.94103 24.22564,5.24845 24.22564,8.45046 0,3.38261 -1.45029,4.11497 -6.23994,3.15101 z"
     id="path4755"
     style="fill:#808080;fill-opacity:1;stroke:#7e7e7e;stroke-width:0.73411018;stroke-opacity:1" />
  <path
     d="m 122.51199,383.27347 c 0.26226,-7.83094 0.6803,-14.76828 0.92898,-15.41631 0.38935,-1.01465 2.10737,-1.17824 12.37363,-1.17824 6.55682,0 14.94539,0.21464 18.64127,0.47698 l 6.71976,0.47699 0,3.446 0,3.44601 -11.15983,0.48303 c -6.13791,0.26567 -11.49473,0.81793 -11.90404,1.22723 -0.59921,0.59921 -1.27634,7.97211 -1.83605,19.99169 -0.0526,1.13072 -0.90966,1.2847 -7.1502,1.2847 l -7.09037,0 0.47685,-14.23808 z"
     id="path4757"
     style="fill:#4d4d4d;fill-opacity:1;stroke:#7e7e7e;stroke-width:0.73411018;stroke-opacity:1" />
  <path
     d="m 356.81599,331.46228 c -8.46217,-0.83859 -31.38409,-4.93354 -37.03316,-6.61591 -7.17418,-2.13656 -11.13613,-5.03729 -21.95364,-16.07327 -12.69692,-12.95334 -20.92845,-23.24289 -26.06897,-32.58664 l -4.13236,-7.51125 -0.003,-24.98903 c -0.002,-19.7216 0.2263,-25.86985 1.08526,-29.16762 2.31328,-8.88126 13.03703,-27.54458 22.6632,-39.44239 9.39927,-11.61737 25.01767,-25.4369 32.47718,-28.7366 4.7284,-2.0916 18.5527,-2.78608 55.93863,-2.81015 l 31.04821,-0.02 7.03766,2.63591 c 6.77738,2.53843 15.3791,6.92134 27.74658,14.13796 4.40478,2.57026 8.88685,6.38045 18.13314,15.41489 11.56404,11.29907 12.3682,12.26481 13.75395,16.51748 4.70655,14.44371 6.31048,26.52355 5.6196,42.32342 -0.80835,18.48597 -4.76798,44.11959 -7.77455,50.33033 -1.93414,3.99541 -20.92728,23.48679 -27.70884,28.43572 -4.82793,3.52324 -9.96625,5.72965 -26.96117,11.57717 -19.30377,6.64195 -19.81134,6.73023 -40.009,6.9586 -9.89214,0.11184 -20.6285,-0.0585 -23.85859,-0.37863 l 0,0 z"
     id="path4759"
     style="fill:#008080;fill-opacity:1;stroke:#7e7e7e;stroke-width:0.73411018;stroke-opacity:1" />
  <path
     d="m 160.58203,535.1205 -4.48552,-5.3223 6.7607,-0.64243 c 6.54626,-0.62206 32.49538,0.4367 36.37014,1.48396 1.61911,0.4376 1.4589,0.7197 -2.91523,5.13306 l -4.6285,4.67001 -13.30804,0 -13.30804,0 -4.48551,-5.3223 z"
     id="path4761"
     style="fill:#800000;fill-opacity:1;stroke:#7e7e7e;stroke-width:0.73411018;stroke-opacity:1" />
  <path
     d="m 111.25614,389.72961 c -1.0094,-0.12146 -4.32891,-0.42426 -7.37669,-0.67289 -3.04778,-0.24862 -5.936989,-0.69652 -6.420473,-0.99533 -0.483483,-0.29881 -1.530595,-4.65399 -2.326915,-9.67819 l -1.447856,-9.13489 6.214056,-5.96854 c 7.392098,-7.10003 14.289098,-11.76885 18.337958,-12.4136 3.12381,-0.49743 17.01749,1.12638 25.85451,3.02173 4.01284,0.86067 5.66728,1.59789 6.79052,3.02586 0.81678,1.03837 1.48506,2.12118 1.48506,2.40623 0,0.28506 -7.24061,0.73601 -16.09024,1.00211 -8.84964,0.26611 -16.6064,0.6819 -17.23725,0.92398 -1.92449,0.7385 -2.75286,5.27357 -3.17135,17.36213 -0.43394,12.53509 -0.0742,11.66738 -4.61133,11.1214 z"
     id="path4763"
     style="fill:#800000;fill-opacity:1;stroke:#7e7e7e;stroke-width:0.73411018;stroke-opacity:1" />
  <path
     d="m 338.8474,540.57044 c -2.4647,-3.68478 -4.33468,-6.84619 -4.15551,-7.02536 0.5477,-0.5477 44.51446,0.69473 44.51446,1.2579 0,0.28956 -2.58355,2.99478 -5.74122,6.01161 -3.87911,3.70608 -6.528,5.64249 -8.16698,5.97028 -1.33416,0.26684 -6.82308,0.48515 -12.19761,0.48515 l -9.77186,0 -4.48128,-6.69958 z"
     id="path4765"
     style="fill:#800000;fill-opacity:1;stroke:#7e7e7e;stroke-width:0.73411018;stroke-opacity:1" />
  <path
     d="m 543.27998,538.47706 c -3.23009,-0.26974 -7.02911,-0.9944 -8.44227,-1.61037 -3.07478,-1.34023 -7.06606,-4.59559 -8.17502,-6.6677 -0.7992,-1.49331 -0.76521,-1.49522 16.71755,-0.94013 9.63511,0.30591 19.83083,0.76714 22.65715,1.02495 l 5.13877,0.46873 -3.96056,4.22114 -3.96057,4.22113 -7.05108,-0.11366 c -3.8781,-0.0625 -9.69389,-0.33436 -12.92397,-0.60409 z"
     id="path4767"
     style="fill:#800000;fill-opacity:1;stroke:#7e7e7e;stroke-width:0.73411018;stroke-opacity:1" />
  <path
     d="m 613.08752,384.53608 c -0.28603,-7.1365 -0.82025,-13.53638 -1.18715,-14.22194 -0.92382,-1.72616 -5.6086,-2.76222 -16.62971,-3.67773 -5.17676,-0.43002 -11.31036,-1.00931 -13.63022,-1.28731 l -4.21793,-0.50546 1.76085,-2.20233 1.76086,-2.20233 11.36241,-0.23393 c 13.91037,-0.28638 24.34772,0.74968 26.93755,2.67395 4.01279,2.98155 14.6984,19.49586 14.6984,22.71597 0,0.80241 -0.53136,3.8119 -1.18081,6.68776 l -1.18082,5.22882 -8.98669,0 -8.98669,0 -0.52005,-12.97547 z"
     id="path4769"
     style="fill:#800000;fill-opacity:1;stroke:#7e7e7e;stroke-width:0.73411018;stroke-opacity:1" />
  <path
     d="m 574.84672,396.12268 c -2.85243,-0.43364 -2.94294,-0.53639 -3.1634,-3.59126 -0.2125,-2.94455 -0.11898,-3.12235 1.46822,-2.79152 0.93235,0.19433 3.56128,0.55548 5.84208,0.80254 3.44945,0.37366 4.21943,0.71969 4.57816,2.05741 0.98237,3.6633 0.64128,4.18393 -2.66866,4.07341 -1.71598,-0.0573 -4.44136,-0.30505 -6.0564,-0.55058 l 0,0 z"
     id="path4771"
     style="fill:#800000;fill-opacity:1;stroke:#7e7e7e;stroke-width:0.73411018;stroke-opacity:1" />
  <path
     d="m 216.96801,403.65719 0,-14.40945 7.89168,0.33506 c 12.29604,0.52205 15.0084,2.71837 13.33893,10.80112 -1.1738,5.68296 -3.95091,10.85357 -6.75772,12.58195 -1.89257,1.16542 -12.80476,5.10076 -14.14373,5.10076 -0.18104,0 -0.32916,-6.48425 -0.32916,-14.40944 z"
     id="path4773"
     style="fill:#800000;fill-opacity:1;stroke:#7e7e7e;stroke-width:0.73411018;stroke-opacity:1" />
  <path
     d="m 499.01349,425.63239 c -1.33222,-0.64755 -3.47949,-2.41412 -4.77172,-3.92571 -2.90655,-3.39995 -8.57347,-12.88237 -11.03245,-18.4605 l -1.84081,-4.17586 3.93694,-0.49189 c 6.47389,-0.80886 15.5362,-0.14028 16.92515,1.24867 1.84693,1.84694 2.9172,12.52297 1.9479,19.43058 -0.97597,6.95512 -1.8222,7.99955 -5.16501,6.37471 z"
     id="path4775"
     style="fill:#800000;fill-opacity:1;stroke:#7e7e7e;stroke-width:0.73411018;stroke-opacity:1" />
  <path
     d="M 367.85655,92.068162 C 357.1026,91.299441 355.41278,90.922264 352.77363,88.701565 347.66058,84.399219 346.1714,77.141102 346.1714,56.523038 l 0,-15.105493 3.48702,0.379712 c 1.91786,0.208842 8.11192,0.72497 13.76457,1.146953 14.53206,1.08485 23.45076,2.126115 29.18088,3.40689 4.68477,1.047125 4.95524,1.220614 4.95524,3.178464 0,2.029005 -4.76703,37.33215 -5.5778,41.30746 l -0.41174,2.018803 -7.83336,-0.106247 c -4.30834,-0.05844 -11.45419,-0.365075 -15.87966,-0.681418 l 0,0 z"
     id="path4777"
     style="fill:#800000;fill-opacity:1;stroke:#7e7e7e;stroke-width:0.73411018;stroke-opacity:1" />
  <path
     style="fill:#808080;fill-opacity:0.48901098;stroke:none"
     d="m 222.17374,521.0957 c 0.49016,-1.27732 0.8912,-4.25047 0.8912,-6.60699 l 0,-4.28458 10.75572,0 c 9.69214,0 11.10769,-0.37753 14.31515,-3.81794 5.61928,-6.0274 17.55087,-15.71498 18.35938,-14.90647 0.40386,0.40387 -5.96897,7.75523 -14.16186,16.33635 l -14.89616,15.60205 -8.07731,0 c -6.76224,0 -7.93222,-0.37812 -7.18612,-2.32242 z"
     id="path3019"
     inkscape:connector-curvature="0" />
  <path
     style="fill:#808080;fill-opacity:0.48901098;stroke:none"
     d="m 328.12207,345.61217 c -19.93875,-2.10032 -24.53268,-4.4842 -42.12855,-21.86132 -17.6705,-17.45082 -25.97606,-29.30637 -30.00473,-42.82941 -2.32054,-7.78936 -2.77441,-14.2006 -2.78936,-39.40163 -0.0205,-34.52341 0.12895,-35.17802 15.00712,-65.7452 7.8,-16.0251 9.49014,-18.33513 24.56282,-33.57164 l 16.18646,-16.36239 16.08788,-1.08533 c 20.02377,-1.35087 85.70345,0.13174 95.18624,2.14866 7.97122,1.69542 32.33951,12.11279 37.48493,16.02469 3.35944,2.55407 3.37209,2.67172 0.94175,8.74577 -1.35492,3.38629 -2.80959,6.15688 -3.23258,6.15688 -0.423,0 -8.68541,-4.41241 -18.36092,-9.80536 l -17.59185,-9.80537 -39.1073,-0.65222 c -47.07198,-0.78506 -56.19763,0.27555 -67.12495,7.80148 -8.53295,5.87687 -24.18454,21.38319 -32.01882,31.72165 -2.82589,3.72916 -8.47778,13.4257 -12.55976,21.54786 l -7.42179,14.76755 0,28.15693 0,28.15693 5.36074,10.2015 c 5.67245,10.79468 24.57529,32.85403 36.98027,43.15546 5.86252,4.86838 9.87767,6.74888 19.58903,9.17448 19.32822,4.82763 36.19779,6.48566 59.5443,5.85234 20.56816,-0.55794 22.5034,-0.87494 37.82757,-6.19621 17.89091,-6.21255 28.4086,-11.08204 35.6105,-16.48697 l 4.77786,-3.58573 1.49945,3.94389 c 2.24549,5.90603 0.8489,8.20729 -9.66636,15.92815 -12.75473,9.36516 -20.86055,12.2166 -39.84636,14.017 -18.38877,1.74379 -67.79396,1.67827 -84.79359,-0.11247 l 0,3e-5 z"
     id="path3021"
     inkscape:connector-curvature="0" />
  <path
     style="fill:#808080;fill-opacity:0.48901098;stroke:none"
     d="m 471.2814,310.92955 c -2.09967,-7.56086 -2.32212,-6.8447 4.86813,-15.67239 5.69001,-6.9858 6.69382,-9.3727 8.79008,-20.90139 4.15588,-22.85594 5.79199,-47.77744 4.00724,-61.03913 -2.77508,-20.62044 -5.53638,-27.05332 -16.6352,-38.75424 l -9.89417,-10.43092 2.3278,-6.83174 2.32781,-6.83174 5.45967,4.32414 c 7.96071,6.305 17.59653,17.13485 19.36994,21.77019 4.98956,13.04174 12.02702,46.37316 12.70544,60.1766 0.7586,15.4348 -2.39082,42.99602 -6.16897,53.98592 -1.99309,5.7975 -14.069,19.00893 -21.15216,23.14114 l -4.46654,2.60569 -1.53907,-5.54213 0,0 z"
     id="path3023"
     inkscape:connector-curvature="0" />
</svg>
